<svg class="generator__canvas" viewBox="0 0 200 200" xmlns="http://www.w3.org/2000/svg" version="1.1" xmlns:xlink="http://www.w3.org/1999/xlink" xmlns:svgjs="http://svgjs.dev/svgjs"><line x1="0" y1="0" x2="20" y2="20" transform="matrix(-0.1761833253648226,-0.17736808017056807,0.17736808017056807,-0.1761833253648226,9.988152451942545,13.535514055353907)" stroke-linecap="round" stroke-width="4" stroke="#1a1a1a"></line><line x1="0" y1="20" x2="20" y2="40" transform="matrix(-0.19829072108566112,-0.1522523889182976,0.1522523889182976,-0.19829072108566112,7.415335543307683,37.471245521752806)" stroke-linecap="round" stroke-width="4" stroke="#1a1a1a"></line><line x1="0" y1="40" x2="20" y2="60" transform="matrix(-0.21913922641315797,-0.12032455878598801,0.12032455878598801,-0.21913922641315797,6.1751643248321795,62.16020690851778)" stroke-linecap="round" stroke-width="4" stroke="#1a1a1a"></line><line x1="0" y1="60" x2="20" y2="80" transform="matrix(-0.2360932176556827,-0.0822191740227694,0.0822191740227694,-0.2360932176556827,6.605589994962969,87.34871697612549)" stroke-linecap="round" stroke-width="4" stroke="#1a1a1a"></line><line x1="0" y1="80" x2="20" y2="100" transform="matrix(-0.24669827702766467,-0.04049642097249603,0.04049642097249603,-0.24669827702766467,8.822304882752004,112.60780914221478)" stroke-linecap="round" stroke-width="4" stroke="#1a1a1a"></line><line x1="0" y1="100" x2="20" y2="120" transform="matrix(-0.2499993645531091,0.0005636692662040054,-0.0005636692662040054,-0.2499993645531091,12.561997264813531,137.49429340817997)" stroke-linecap="round" stroke-width="4" stroke="#1a1a1a"></line><line x1="0" y1="120" x2="20" y2="140" transform="matrix(-0.24739552863076697,0.035992393828465453,-0.035992393828465453,-0.24739552863076697,17.15296648400818,161.80149478371504)" stroke-linecap="round" stroke-width="4" stroke="#1a1a1a"></line><line x1="0" y1="140" x2="20" y2="160" transform="matrix(-0.2423451073583783,0.06139095160897977,-0.06139095160897977,-0.2423451073583783,21.632093814930748,185.73785658766695)" stroke-linecap="round" stroke-width="4" stroke="#1a1a1a"></line><line x1="0" y1="160" x2="20" y2="180" transform="matrix(-0.23892591696346013,0.0735826487914763,-0.0735826487914763,-0.23892591696346013,24.898309464185573,209.88157939587347)" stroke-linecap="round" stroke-width="4" stroke="#1a1a1a"></line><line x1="0" y1="180" x2="20" y2="200" transform="matrix(-0.2398872148795749,0.0703855392628391,-0.0703855392628391,-0.2398872148795749,25.772124608735176,234.87471543449084)" stroke-linecap="round" stroke-width="4" stroke="#1a1a1a"></line><line x1="20" y1="0" x2="40" y2="20" transform="matrix(-0.13345894278119602,-0.21139704489828007,0.21139704489828007,-0.13345894278119602,31.88979783445308,17.676500774760363)" stroke-linecap="round" stroke-width="4" stroke="#1a1a1a"></line><line x1="20" y1="20" x2="40" y2="40" transform="matrix(-0.16753182409041945,-0.18556154751708867,0.18556154751708867,-0.16753182409041945,29.459108297199926,40.59280114822524)" stroke-linecap="round" stroke-width="4" stroke="#1a1a1a"></line><line x1="20" y1="40" x2="40" y2="60" transform="matrix(-0.1998010899984739,-0.15026484763716938,0.15026484763716938,-0.1998010899984739,28.48079031809575,64.49799992903877)" stroke-linecap="round" stroke-width="4" stroke="#1a1a1a"></line><line x1="20" y1="60" x2="40" y2="80" transform="matrix(-0.22644686492411487,-0.10593307965899829,0.10593307965899829,-0.22644686492411487,29.378090371593565,89.02927293445799)" stroke-linecap="round" stroke-width="4" stroke="#1a1a1a"></line><line x1="20" y1="80" x2="40" y2="100" transform="matrix(-0.24377868641548922,-0.0554251932747065,0.0554251932747065,-0.24377868641548922,32.32509319774109,113.60283757563522)" stroke-linecap="round" stroke-width="4" stroke="#1a1a1a"></line><line x1="20" y1="100" x2="40" y2="120" transform="matrix(-0.24996977914396398,-0.0038870959234200745,0.0038870959234200745,-0.24996977914396398,37.07151282274271,137.61328858353863)" stroke-linecap="round" stroke-width="4" stroke="#1a1a1a"></line><line x1="20" y1="120" x2="40" y2="140" transform="matrix(-0.246343625265795,0.04260068416006443,-0.04260068416006443,-0.246343625265795,42.92839769878223,160.74665075975142)" stroke-linecap="round" stroke-width="4" stroke="#1a1a1a"></line><line x1="20" y1="140" x2="40" y2="160" transform="matrix(-0.2372397743132301,0.07884979063895893,-0.07884979063895893,-0.2372397743132301,48.94466182524074,183.22047242781574)" stroke-linecap="round" stroke-width="4" stroke="#1a1a1a"></line><line x1="20" y1="160" x2="40" y2="180" transform="matrix(-0.2284027591992189,0.10164732947885857,-0.10164732947885857,-0.2284027591992189,54.13212878738253,205.77904917950144)" stroke-linecap="round" stroke-width="4" stroke="#1a1a1a"></line><line x1="20" y1="180" x2="40" y2="200" transform="matrix(-0.22475478800458154,0.10947732764831085,-0.10947732764831085,-0.22475478800458154,57.54333589331651,229.41908989142115)" stroke-linecap="round" stroke-width="4" stroke="#1a1a1a"></line><line x1="40" y1="0" x2="60" y2="20" transform="matrix(-0.09852603239017645,-0.22976644868528978,0.22976644868528978,-0.09852603239017645,52.628637132655925,22.473582758166252)" stroke-linecap="round" stroke-width="4" stroke="#1a1a1a"></line><line x1="40" y1="20" x2="60" y2="40" transform="matrix(-0.14294865842287388,-0.20509919808497673,0.20509919808497673,-0.14294865842287388,50.99445697859439,44.54341965693506)" stroke-linecap="round" stroke-width="4" stroke="#1a1a1a"></line><line x1="40" y1="40" x2="60" y2="60" transform="matrix(-0.1853660217170316,-0.16774813856732054,0.16774813856732054,-0.1853660217170316,50.88089415748555,67.65570801421761)" stroke-linecap="round" stroke-width="4" stroke="#1a1a1a"></line><line x1="40" y1="60" x2="60" y2="80" transform="matrix(-0.22048913608841844,-0.11783268165913431,0.11783268165913431,-0.22048913608841844,52.77616908828152,91.32587360914602)" stroke-linecap="round" stroke-width="4" stroke="#1a1a1a"></line><line x1="40" y1="80" x2="60" y2="100" transform="matrix(-0.24303549580308978,-0.05859818921900518,0.05859818921900518,-0.24303549580308978,56.87793776044403,114.80310408322833)" stroke-linecap="round" stroke-width="4" stroke="#1a1a1a"></line><line x1="40" y1="100" x2="60" y2="120" transform="matrix(-0.24997333735841715,0.003651110775499396,-0.003651110775499396,-0.24997333735841715,62.90028905322579,137.31451157065092)" stroke-linecap="round" stroke-width="4" stroke="#1a1a1a"></line><line x1="40" y1="120" x2="60" y2="140" transform="matrix(-0.24236751781211002,0.06130241683324184,-0.06130241683324184,-0.24236751781211002,70.08769007892694,158.44265647391222)" stroke-linecap="round" stroke-width="4" stroke="#1a1a1a"></line><line x1="40" y1="140" x2="60" y2="160" transform="matrix(-0.22545625571167655,0.1080253523968847,-0.1080253523968847,-0.22545625571167655,77.47661564511654,178.41717073690725)" stroke-linecap="round" stroke-width="4" stroke="#1a1a1a"></line><line x1="40" y1="160" x2="60" y2="180" transform="matrix(-0.206773501320095,0.14051590355482427,-0.14051590355482427,-0.206773501320095,84.22637867032488,198.12570004667495)" stroke-linecap="round" stroke-width="4" stroke="#1a1a1a"></line><line x1="40" y1="180" x2="60" y2="200" transform="matrix(-0.1934826349028288,0.15831762375382805,-0.15831762375382805,-0.1934826349028288,89.75448025836877,218.84581944384607)" stroke-linecap="round" stroke-width="4" stroke="#1a1a1a"></line><line x1="60" y1="0" x2="80" y2="20" transform="matrix(-0.07581148997530768,-0.23822807976333063,0.23822807976333063,-0.07581148997530768,72.92452350063823,27.43408048318622)" stroke-linecap="round" stroke-width="4" stroke="#1a1a1a"></line><line x1="60" y1="20" x2="80" y2="40" transform="matrix(-0.12754800241236633,-0.21501513221309562,0.21501513221309562,-0.12754800241236633,72.47790620247278,48.87749932728768)" stroke-linecap="round" stroke-width="4" stroke="#1a1a1a"></line><line x1="60" y1="40" x2="80" y2="60" transform="matrix(-0.17743657952583766,-0.17611433855927544,0.17611433855927544,-0.17743657952583766,73.61484363884486,71.19983267544117)" stroke-linecap="round" stroke-width="4" stroke="#1a1a1a"></line><line x1="60" y1="60" x2="80" y2="80" transform="matrix(-0.21865167183273698,-0.12120827696469039,0.12120827696469039,-0.21865167183273698,76.82103764076327,93.79019641581992)" stroke-linecap="round" stroke-width="4" stroke="#1a1a1a"></line><line x1="60" y1="80" x2="80" y2="100" transform="matrix(-0.24412513545066586,-0.053878736447638076,0.053878736447638076,-0.24412513545066586,82.23967320125918,115.7427737418946)" stroke-linecap="round" stroke-width="4" stroke="#1a1a1a"></line><line x1="60" y1="100" x2="80" y2="120" transform="matrix(-0.24932974807229358,0.01829417191912815,-0.01829417191912815,-0.24932974807229358,89.46544127616465,136.14568025361334)" stroke-linecap="round" stroke-width="4" stroke="#1a1a1a"></line><line x1="60" y1="120" x2="80" y2="140" transform="matrix(-0.23479939417415674,0.08584430380315847,-0.08584430380315847,-0.23479939417415674,97.59571708660157,154.5148199764193)" stroke-linecap="round" stroke-width="4" stroke="#1a1a1a"></line><line x1="60" y1="140" x2="80" y2="160" transform="matrix(-0.20652001021757818,0.1408882017052223,-0.1408882017052223,-0.20652001021757818,105.58963097101382,171.11582741327118)" stroke-linecap="round" stroke-width="4" stroke="#1a1a1a"></line><line x1="60" y1="160" x2="80" y2="180" transform="matrix(-0.17373513981748837,0.17976679669115142,-0.17976679669115142,-0.17373513981748837,112.72181522471993,186.95129800059243)" stroke-linecap="round" stroke-width="4" stroke="#1a1a1a"></line><line x1="60" y1="180" x2="80" y2="200" transform="matrix(-0.14563132424062078,0.20320314318416233,-0.20320314318416233,-0.14563132424062078,118.8027899018343,203.4457315828266)" stroke-linecap="round" stroke-width="4" stroke="#1a1a1a"></line><line x1="80" y1="0" x2="100" y2="20" transform="matrix(-0.06575579569333954,-0.24119737837036245,0.24119737837036245,-0.06575579569333954,93.50604782869694,32.36532201026601)" stroke-linecap="round" stroke-width="4" stroke="#1a1a1a"></line><line x1="80" y1="20" x2="100" y2="40" transform="matrix(-0.12101249090311303,-0.21876009015682907,0.21876009015682907,-0.12101249090311303,94.3283214765753,53.318782841208005)" stroke-linecap="round" stroke-width="4" stroke="#1a1a1a"></line><line x1="80" y1="40" x2="100" y2="60" transform="matrix(-0.17491447937005603,-0.17861949755472453,0.17861949755472453,-0.17491447937005603,96.81132826556882,74.821478748428)" stroke-linecap="round" stroke-width="4" stroke="#1a1a1a"></line><line x1="80" y1="60" x2="100" y2="80" transform="matrix(-0.21939241835885964,-0.11986228250225799,0.11986228250225799,-0.21939241835885964,101.35495787713931,96.1450747103234)" stroke-linecap="round" stroke-width="4" stroke="#1a1a1a"></line><line x1="80" y1="80" x2="100" y2="100" transform="matrix(-0.24570997002883577,-0.04611518869557654,0.04611518869557654,-0.24570997002883577,107.96353031999334,116.2642642851971)" stroke-linecap="round" stroke-width="4" stroke="#1a1a1a"></line><line x1="80" y1="100" x2="100" y2="120" transform="matrix(-0.24767533053186808,0.034013683216168995,-0.034013683216168995,-0.24767533053186808,116.03228490164672,134.18305486905027)" stroke-linecap="round" stroke-width="4" stroke="#1a1a1a"></line><line x1="80" y1="120" x2="100" y2="140" transform="matrix(-0.22490393650764848,0.10917059743064346,-0.10917059743064346,-0.22490393650764848,124.43353195167201,149.4121579772364)" stroke-linecap="round" stroke-width="4" stroke="#1a1a1a"></line><line x1="80" y1="140" x2="100" y2="160" transform="matrix(-0.18374812132536328,0.16951881284801276,-0.16951881284801276,-0.18374812132536328,131.9651528464846,162.30552504248334)" stroke-linecap="round" stroke-width="4" stroke="#1a1a1a"></line><line x1="80" y1="160" x2="100" y2="180" transform="matrix(-0.13493102306257063,0.21046049276595366,-0.21046049276595366,-0.13493102306257063,137.9220758458435,173.99682957170117)" stroke-linecap="round" stroke-width="4" stroke="#1a1a1a"></line><line x1="80" y1="180" x2="100" y2="200" transform="matrix(-0.08944642715838437,0.23345092989448518,-0.23345092989448518,-0.08944642715838437,142.40585512420677,185.98423746958937)" stroke-linecap="round" stroke-width="4" stroke="#1a1a1a"></line><line x1="100" y1="0" x2="120" y2="20" transform="matrix(-0.06633314158221286,-0.24103923814979605,0.24103923814979605,-0.06633314158221286,114.88625319254545,37.177647612299694)" stroke-linecap="round" stroke-width="4" stroke="#1a1a1a"></line><line x1="100" y1="20" x2="120" y2="40" transform="matrix(-0.12093806439374687,-0.21880124446788216,0.21880124446788216,-0.12093806439374687,116.7391497492757,57.69627882327944)" stroke-linecap="round" stroke-width="4" stroke="#1a1a1a"></line><line x1="100" y1="40" x2="120" y2="60" transform="matrix(-0.17521346445355235,-0.1783262231815157,0.1783262231815157,-0.17521346445355235,120.35716993081498,78.37655777264435)" stroke-linecap="round" stroke-width="4" stroke="#1a1a1a"></line><line x1="100" y1="60" x2="120" y2="80" transform="matrix(-0.2204423172020171,-0.11792024756845312,0.11792024756845312,-0.2204423172020171,125.99423756243016,98.40218943667104)" stroke-linecap="round" stroke-width="4" stroke="#1a1a1a"></line><line x1="100" y1="80" x2="120" y2="100" transform="matrix(-0.24667218675302488,-0.0406550400624672,0.0406550400624672,-0.24667218675302488,133.4749869372107,116.67255121464363)" stroke-linecap="round" stroke-width="4" stroke="#1a1a1a"></line><line x1="100" y1="100" x2="120" y2="120" transform="matrix(-0.24599009591945067,0.04459677913862677,-0.04459677913862677,-0.24599009591945067,141.9645562563885,132.15326484589065)" stroke-linecap="round" stroke-width="4" stroke="#1a1a1a"></line><line x1="100" y1="120" x2="120" y2="140" transform="matrix(-0.21648383383238443,0.1250389926752154,-0.1250389926752154,-0.21648383383238443,150.06829076934028,144.38860920393628)" stroke-linecap="round" stroke-width="4" stroke="#1a1a1a"></line><line x1="100" y1="140" x2="120" y2="160" transform="matrix(-0.16407632795024618,0.18862385481789745,-0.18862385481789745,-0.16407632795024618,156.3419742972117,153.8628251625682)" stroke-linecap="round" stroke-width="4" stroke="#1a1a1a"></line><line x1="100" y1="160" x2="120" y2="180" transform="matrix(-0.1004849863240203,0.22891650775656494,-0.22891650775656494,-0.1004849863240203,159.96915481425827,161.90163182186132)" stroke-linecap="round" stroke-width="4" stroke="#1a1a1a"></line><line x1="100" y1="180" x2="120" y2="200" transform="matrix(-0.03848201204667869,0.24702051483396936,-0.24702051483396936,-0.03848201204667869,161.16691914358884,170.13932565713233)" stroke-linecap="round" stroke-width="4" stroke="#1a1a1a"></line><line x1="120" y1="0" x2="140" y2="20" transform="matrix(-0.074614018075504,-0.23860584298509616,0.23860584298509616,-0.074614018075504,137.31376391996457,41.76489976881754)" stroke-linecap="round" stroke-width="4" stroke="#1a1a1a"></line><line x1="120" y1="20" x2="140" y2="40" transform="matrix(-0.12402991590765262,-0.21706353899248168,0.21706353899248168,-0.12402991590765262,139.6119828982204,61.9391575462522)" stroke-linecap="round" stroke-width="4" stroke="#1a1a1a"></line><line x1="120" y1="40" x2="140" y2="60" transform="matrix(-0.17528118754575955,-0.17825965694050988,0.17825965694050988,-0.17528118754575955,143.87357153392324,81.93781477955426)" stroke-linecap="round" stroke-width="4" stroke="#1a1a1a"></line><line x1="120" y1="60" x2="140" y2="80" transform="matrix(-0.21957593937923103,-0.11952575808472525,0.11952575808472525,-0.21957593937923103,150.17806905336926,100.90866430756046)" stroke-linecap="round" stroke-width="4" stroke="#1a1a1a"></line><line x1="120" y1="80" x2="140" y2="100" transform="matrix(-0.24633852916269172,-0.042630142504590345,0.042630142504590345,-0.24633852916269172,158.18729596573678,117.712386150239)" stroke-linecap="round" stroke-width="4" stroke="#1a1a1a"></line><line x1="120" y1="100" x2="140" y2="120" transform="matrix(-0.2460006984316552,0.04453825738775417,-0.04453825738775417,-0.2460006984316552,166.87929910876812,131.27010336707403)" stroke-linecap="round" stroke-width="4" stroke="#1a1a1a"></line><line x1="120" y1="120" x2="140" y2="140" transform="matrix(-0.21427930819100058,0.1287803481948476,-0.1287803481948476,-0.21427930819100058,174.59775533016028,141.11486479949988)" stroke-linecap="round" stroke-width="4" stroke="#1a1a1a"></line><line x1="120" y1="140" x2="140" y2="160" transform="matrix(-0.15528755515979867,0.19592288077836262,-0.19592288077836262,-0.15528755515979867,179.5758142875282,147.82315877278268)" stroke-linecap="round" stroke-width="4" stroke="#1a1a1a"></line><line x1="120" y1="160" x2="140" y2="180" transform="matrix(-0.08069239885204019,0.2366193922050838,-0.2366193922050838,-0.08069239885204019,180.71530852562947,152.95718681818593)" stroke-linecap="round" stroke-width="4" stroke="#1a1a1a"></line><line x1="120" y1="180" x2="140" y2="200" transform="matrix(-0.004986515001212279,0.24995026438902337,-0.24995026438902337,-0.004986515001212279,178.13879718407205,158.4539034796573)" stroke-linecap="round" stroke-width="4" stroke="#1a1a1a"></line><line x1="140" y1="0" x2="160" y2="20" transform="matrix(-0.08748558680514225,-0.23419280967049336,0.23419280967049336,-0.08748558680514225,160.7809099240664,46.003777318625424)" stroke-linecap="round" stroke-width="4" stroke="#1a1a1a"></line><line x1="140" y1="20" x2="160" y2="40" transform="matrix(-0.12722270146314757,-0.21520776991646662,0.21520776991646662,-0.12722270146314757,162.62717212197813,66.09784653136441)" stroke-linecap="round" stroke-width="4" stroke="#1a1a1a"></line><line x1="140" y1="40" x2="160" y2="60" transform="matrix(-0.1722294572848928,-0.1812098618821594,0.1812098618821594,-0.1722294572848928,166.77392549862594,85.79295214656855)" stroke-linecap="round" stroke-width="4" stroke="#1a1a1a"></line><line x1="140" y1="60" x2="160" y2="80" transform="matrix(-0.2146012418066951,-0.12824315582137077,0.12824315582137077,-0.2146012418066951,173.21316536350832,104.25856029967427)" stroke-linecap="round" stroke-width="4" stroke="#1a1a1a"></line><line x1="140" y1="80" x2="160" y2="100" transform="matrix(-0.24360839722770905,-0.05616893091511282,0.05616893091511282,-0.24360839722770905,181.4860558017962,120.35009538776075)" stroke-linecap="round" stroke-width="4" stroke="#1a1a1a"></line><line x1="140" y1="100" x2="160" y2="120" transform="matrix(-0.2482595212429552,0.02944843140506252,-0.02944843140506252,-0.2482595212429552,190.47825564100015,132.8912826259657)" stroke-linecap="round" stroke-width="4" stroke="#1a1a1a"></line><line x1="140" y1="120" x2="160" y2="140" transform="matrix(-0.2211258087978263,0.11663351440948336,-0.11663351440948336,-0.2211258087978263,198.3312281929068,141.25132798229492)" stroke-linecap="round" stroke-width="4" stroke="#1a1a1a"></line><line x1="140" y1="140" x2="160" y2="160" transform="matrix(-0.16266200072633083,0.189844866982774,-0.189844866982774,-0.16266200072633083,202.87603015636574,145.92257006153352)" stroke-linecap="round" stroke-width="4" stroke="#1a1a1a"></line><line x1="140" y1="160" x2="160" y2="180" transform="matrix(-0.08255848571007397,0.2359747792397728,-0.2359747792397728,-0.08255848571007397,202.49948532727248,148.63872568474665)" stroke-linecap="round" stroke-width="4" stroke="#1a1a1a"></line><line x1="140" y1="180" x2="160" y2="200" transform="matrix(0.0036923083641121498,0.24997273223082614,-0.24997273223082614,0.0036923083641121498,196.94097286924014,151.80255157619476)" stroke-linecap="round" stroke-width="4" stroke="#1a1a1a"></line><line x1="160" y1="0" x2="180" y2="20" transform="matrix(-0.10189533460649042,-0.2282922267301963,0.2282922267301963,-0.10189533460649042,185.03928461580142,49.828631890198274)" stroke-linecap="round" stroke-width="4" stroke="#1a1a1a"></line><line x1="160" y1="20" x2="180" y2="40" transform="matrix(-0.12804540441765375,-0.21471929211768442,0.21471929211768442,-0.12804540441765375,185.3261399874706,70.34364179253596)" stroke-linecap="round" stroke-width="4" stroke="#1a1a1a"></line><line x1="160" y1="40" x2="180" y2="60" transform="matrix(-0.163650701831784,-0.18899324800099215,0.18899324800099215,-0.163650701831784,188.3709569113537,90.31138725175786)" stroke-linecap="round" stroke-width="4" stroke="#1a1a1a"></line><line x1="160" y1="60" x2="180" y2="80" transform="matrix(-0.20281787037643179,-0.14616740900751066,0.14616740900751066,-0.20281787037643179,194.24731933346766,109.04571045762704)" stroke-linecap="round" stroke-width="4" stroke="#1a1a1a"></line><line x1="160" y1="80" x2="180" y2="100" transform="matrix(-0.23560256639872942,-0.08361477564600826,0.08361477564600826,-0.23560256639872942,202.52710647964327,125.41874283570705)" stroke-linecap="round" stroke-width="4" stroke="#1a1a1a"></line><line x1="160" y1="100" x2="180" y2="120" transform="matrix(-0.24997327664131444,-0.003655265408267324,0.003655265408267324,-0.24997327664131444,212.09337783411405,138.11845554995003)" stroke-linecap="round" stroke-width="4" stroke="#1a1a1a"></line><line x1="160" y1="120" x2="180" y2="140" transform="matrix(-0.23516641955456283,0.08483369091279318,-0.08483369091279318,-0.23516641955456283,221.00667114293879,146.14990708691832)" stroke-linecap="round" stroke-width="4" stroke="#1a1a1a"></line><line x1="160" y1="140" x2="180" y2="160" transform="matrix(-0.18627685416771958,0.16673611966631025,-0.16673611966631025,-0.18627685416771958,226.67748315845887,149.5963877818852)" stroke-linecap="round" stroke-width="4" stroke="#1a1a1a"></line><line x1="160" y1="160" x2="180" y2="180" transform="matrix(-0.10824702621684355,0.22534990862037194,-0.22534990862037194,-0.10824702621684355,226.71147892232665,150.09250999140016)" stroke-linecap="round" stroke-width="4" stroke="#1a1a1a"></line><line x1="160" y1="180" x2="180" y2="200" transform="matrix(-0.015433240176849182,0.24952317547202643,-0.24952317547202643,-0.015433240176849182,220.0330541697494,150.51337580335684)" stroke-linecap="round" stroke-width="4" stroke="#1a1a1a"></line><line x1="180" y1="0" x2="200" y2="20" transform="matrix(-0.1151961007752946,-0.2218780258749572,0.2218780258749572,-0.1151961007752946,209.6684788885564,53.30878592399481)" stroke-linecap="round" stroke-width="4" stroke="#1a1a1a"></line><line x1="180" y1="20" x2="200" y2="40" transform="matrix(-0.12463964940792244,-0.2167139999987776,0.2167139999987776,-0.12463964940792244,207.18011338754192,74.91484948200542)" stroke-linecap="round" stroke-width="4" stroke="#1a1a1a"></line><line x1="180" y1="40" x2="200" y2="60" transform="matrix(-0.14748517348531964,-0.2018616447025169,0.2018616447025169,-0.14748517348531964,207.9291007270849,95.72797116774419)" stroke-linecap="round" stroke-width="4" stroke="#1a1a1a"></line><line x1="180" y1="60" x2="200" y2="80" transform="matrix(-0.1808084609473223,-0.17265080494993537,0.17265080494993537,-0.1808084609473223,212.26805123349575,115.46024520680028)" stroke-linecap="round" stroke-width="4" stroke="#1a1a1a"></line><line x1="180" y1="80" x2="200" y2="100" transform="matrix(-0.21689699036464816,-0.12432093778104204,0.12432093778104204,-0.21689699036464816,220.02154376898937,133.14170731121632)" stroke-linecap="round" stroke-width="4" stroke="#1a1a1a"></line><line x1="180" y1="100" x2="200" y2="120" transform="matrix(-0.24383141718217166,-0.055192753101596284,0.055192753101596284,-0.24383141718217166,230.25676642343703,147.30807897934218)" stroke-linecap="round" stroke-width="4" stroke="#1a1a1a"></line><line x1="180" y1="120" x2="200" y2="140" transform="matrix(-0.24813224743617698,0.030502258642137233,-0.030502258642137233,-0.24813224743617698,241.11042063635148,156.46176302469692)" stroke-linecap="round" stroke-width="4" stroke="#1a1a1a"></line><line x1="180" y1="140" x2="200" y2="160" transform="matrix(-0.21889991349946977,0.1207593800494382,-0.1207593800494382,-0.21889991349946977,249.70489057231498,159.89070481552722)" stroke-linecap="round" stroke-width="4" stroke="#1a1a1a"></line><line x1="180" y1="160" x2="200" y2="180" transform="matrix(-0.15352456129631334,0.19730739742537412,-0.19730739742537412,-0.15352456129631334,252.71192420861314,158.61076990955218)" stroke-linecap="round" stroke-width="4" stroke="#1a1a1a"></line><line x1="180" y1="180" x2="200" y2="200" transform="matrix(-0.0614658135798817,0.2423261309907853,-0.2423261309907853,-0.0614658135798817,247.72046946842673,155.6365396919283)" stroke-linecap="round" stroke-width="4" stroke="#1a1a1a"></line></svg>