<svg id="visual" viewBox="0 0 3000 300" width="3000" height="300" xmlns="http://www.w3.org/2000/svg" xmlns:xlink="http://www.w3.org/1999/xlink" version="1.1"><path d="M0 176L71.5 168.5C143 161 286 146 428.8 157.2C571.7 168.3 714.3 205.7 857.2 210.8C1000 216 1143 189 1285.8 186.3C1428.7 183.7 1571.3 205.3 1714.2 200.7C1857 196 2000 165 2142.8 150.3C2285.7 135.7 2428.3 137.3 2571.2 149C2714 160.7 2857 182.3 2928.5 193.2L3000 204L3000 0L2928.5 0C2857 0 2714 0 2571.2 0C2428.3 0 2285.7 0 2142.8 0C2000 0 1857 0 1714.2 0C1571.3 0 1428.7 0 1285.8 0C1143 0 1000 0 857.2 0C714.3 0 571.7 0 428.8 0C286 0 143 0 71.5 0L0 0Z" fill="#1650e1" stroke-linecap="round" stroke-linejoin="miter"></path></svg>