<?xml version="1.0" standalone="no"?>
<!DOCTYPE svg PUBLIC "-//W3C//DTD SVG 20010904//EN"
 "http://www.w3.org/TR/2001/REC-SVG-20010904/DTD/svg10.dtd">
<svg version="1.0" xmlns="http://www.w3.org/2000/svg"
 width="512.000000pt" height="512.000000pt" viewBox="0 0 512.000000 512.000000"
 preserveAspectRatio="xMidYMid meet">
<metadata>
Created by potrace 1.16, written by Peter Selinger 2001-2019
</metadata>
<g transform="translate(0.000000,512.000000) scale(0.100000,-0.100000)"
fill="#ffffff" stroke="none">
<path d="M2368 3044 c-148 -35 -282 -142 -348 -278 -140 -284 -58 -614 195
-778 86 -56 179 -82 295 -82 165 0 274 45 391 163 116 116 169 246 169 416 0
166 -53 297 -166 413 -77 78 -169 129 -272 151 -70 15 -193 13 -264 -5z m297
-203 c113 -52 183 -150 206 -290 30 -179 -50 -350 -199 -423 -61 -30 -74 -33
-162 -33 -82 0 -103 4 -152 27 -231 108 -287 447 -107 643 103 111 271 142
414 76z"/>
<path d="M3623 3046 c-190 -46 -346 -213 -389 -415 -18 -85 -18 -208 1 -294
39 -185 187 -356 353 -407 173 -54 359 -21 490 87 45 36 122 144 122 169 0 11
-146 94 -164 94 -3 0 -12 -15 -21 -34 -21 -45 -80 -103 -130 -129 -62 -32
-174 -35 -249 -7 -159 60 -250 247 -219 448 22 140 83 231 190 284 56 27 75
32 141 32 118 -1 204 -47 258 -141 15 -24 32 -42 38 -39 89 37 156 71 156 80
0 25 -61 114 -107 158 -118 110 -302 154 -470 114z"/>
<path d="M918 2480 l2 -562 238 4 c209 4 245 7 303 26 171 56 297 194 344 377
20 78 19 240 -1 319 -45 173 -165 307 -330 368 -53 19 -83 22 -309 26 l-250 4
3 -562z m524 347 c70 -35 130 -100 159 -176 18 -45 23 -77 23 -166 0 -128 -20
-193 -81 -264 -75 -88 -164 -121 -330 -121 l-103 0 0 381 0 381 138 -4 c126
-3 141 -5 194 -31z"/>
</g>
</svg>
