<svg xmlns="http://www.w3.org/2000/svg" xmlns:xlink="http://www.w3.org/1999/xlink" version="1.1" width="1000" height="1000" viewBox="0 0 1000 1000" xml:space="preserve">
<desc>Created with Fabric.js 3.5.0</desc>
<defs>
</defs>
<rect x="0" y="0" width="100%" height="100%" fill="#ffffff"/>
<g transform="matrix(0.75 0 0 0.75 500 500)" id="224158">
<g style="" vector-effect="non-scaling-stroke">
		<g transform="matrix(0.1333 0 0 -0.1333 -6.5459 10.3131)">
<path style="stroke: none; stroke-width: 1; stroke-dasharray: none; stroke-linecap: butt; stroke-dashoffset: 0; stroke-linejoin: miter; stroke-miterlimit: 4; is-custom-font: none; font-file-url: none; fill: rgb(0,0,0); fill-rule: nonzero; opacity: 1;" transform=" translate(-2511.0456, -2482.507)" d="M 2368 3044 c -148 -35 -282 -142 -348 -278 c -140 -284 -58 -614 195 -778 c 86 -56 179 -82 295 -82 c 165 0 274 45 391 163 c 116 116 169 246 169 416 c 0 166 -53 297 -166 413 c -77 78 -169 129 -272 151 c -70 15 -193 13 -264 -5 z m 297 -203 c 113 -52 183 -150 206 -290 c 30 -179 -50 -350 -199 -423 c -61 -30 -74 -33 -162 -33 c -82 0 -103 4 -152 27 c -231 108 -287 447 -107 643 c 103 111 271 142 414 76 z" stroke-linecap="round"/>
</g>
		<g transform="matrix(0.1333 0 0 -0.1333 153.3585 10.3121)">
<path style="stroke: none; stroke-width: 1; stroke-dasharray: none; stroke-linecap: butt; stroke-dashoffset: 0; stroke-linejoin: miter; stroke-miterlimit: 4; is-custom-font: none; font-file-url: none; fill: rgb(0,0,0); fill-rule: nonzero; opacity: 1;" transform=" translate(-3710.3112, -2482.5149)" d="M 3623 3046 c -190 -46 -346 -213 -389 -415 c -18 -85 -18 -208 1 -294 c 39 -185 187 -356 353 -407 c 173 -54 359 -21 490 87 c 45 36 122 144 122 169 c 0 11 -146 94 -164 94 c -3 0 -12 -15 -21 -34 c -21 -45 -80 -103 -130 -129 c -62 -32 -174 -35 -249 -7 c -159 60 -250 247 -219 448 c 22 140 83 231 190 284 c 56 27 75 32 141 32 c 118 -1 204 -47 258 -141 c 15 -24 32 -42 38 -39 c 89 37 156 71 156 80 c 0 25 -61 114 -107 158 c -118 110 -302 154 -470 114 z" stroke-linecap="round"/>
</g>
		<g transform="matrix(0.1333 0 0 -0.1333 -159.0478 10.648)">
<path style="stroke: none; stroke-width: 1; stroke-dasharray: none; stroke-linecap: butt; stroke-dashoffset: 0; stroke-linejoin: miter; stroke-miterlimit: 4; is-custom-font: none; font-file-url: none; fill: rgb(0,0,0); fill-rule: nonzero; opacity: 1;" transform=" translate(-1367.2547, -2480)" d="M 918 2480 l 2 -562 l 238 4 c 209 4 245 7 303 26 c 171 56 297 194 344 377 c 20 78 19 240 -1 319 c -45 173 -165 307 -330 368 c -53 19 -83 22 -309 26 l -250 4 l 3 -562 z m 524 347 c 70 -35 130 -100 159 -176 c 18 -45 23 -77 23 -166 c 0 -128 -20 -193 -81 -264 c -75 -88 -164 -121 -330 -121 l -103 0 l 0 381 l 0 381 l 138 -4 c 126 -3 141 -5 194 -31 z" stroke-linecap="round"/>
</g>
</g>
</g>
</svg>