<svg width="2000" height="1024" viewBox="0 0 1440 1024" fill="none" xmlns="http://www.w3.org/2000/svg">
<g clip-path="url(#clip0_1_2)">
<path d="M600 993L709.897 833.352L917.988 737.064L1035.52 571.927L1205.45 536.505L1324.5 397.312L1527 312" stroke="url(#paint0_linear_1_2)" stroke-width="16"/>
<path d="M615 1017L724.897 857.352L932.988 761.064L1050.52 595.927L1220.45 560.505L1339.5 421.312L1542 336" stroke="url(#paint1_linear_1_2)" stroke-width="16"/>
<path d="M630 1041L739.897 881.352L947.988 785.064L1065.52 619.927L1235.45 584.505L1354.5 445.312L1557 360" stroke="url(#paint2_linear_1_2)" stroke-width="16"/>
<path d="M645 1065L754.897 905.352L962.988 809.064L1080.52 643.927L1250.45 608.505L1369.5 469.312L1572 384" stroke="url(#paint3_linear_1_2)" stroke-width="16"/>
<path d="M660 1089L769.897 929.352L977.988 833.064L1095.52 667.927L1265.45 632.505L1384.5 493.312L1587 408" stroke="url(#paint4_linear_1_2)" stroke-width="16"/>
<path d="M675 1113L784.897 953.352L992.988 857.064L1110.52 691.927L1280.45 656.505L1399.5 517.312L1602 432" stroke="url(#paint5_linear_1_2)" stroke-width="16"/>
<path d="M690 1137L799.897 977.352L1007.99 881.064L1125.52 715.927L1295.45 680.505L1414.5 541.312L1617 456" stroke="url(#paint6_linear_1_2)" stroke-width="16"/>
<path d="M705 1161L814.897 1001.35L1022.99 905.064L1140.52 739.927L1310.45 704.505L1429.5 565.312L1632 480" stroke="url(#paint7_linear_1_2)" stroke-width="16"/>
<path d="M720 1185L829.897 1025.35L1037.99 929.064L1155.52 763.927L1325.45 728.505L1444.5 589.312L1647 504" stroke="url(#paint8_linear_1_2)" stroke-width="16"/>
<path d="M735 1209L844.897 1049.35L1052.99 953.064L1170.52 787.927L1340.45 752.505L1459.5 613.312L1662 528" stroke="url(#paint9_linear_1_2)" stroke-width="16"/>
<path d="M750 1233L859.897 1073.35L1067.99 977.064L1185.52 811.927L1355.45 776.505L1474.5 637.312L1677 552" stroke="url(#paint10_linear_1_2)" stroke-width="16"/>
<path d="M765 1257L874.897 1097.35L1082.99 1001.06L1200.52 835.927L1370.45 800.505L1489.5 661.312L1692 576" stroke="url(#paint11_linear_1_2)" stroke-width="16"/>
<path d="M780 1281L889.897 1121.35L1097.99 1025.06L1215.52 859.927L1385.45 824.505L1504.5 685.312L1707 600" stroke="url(#paint12_linear_1_2)" stroke-width="16"/>
<path d="M795 1305L904.897 1145.35L1112.99 1049.06L1230.52 883.927L1400.45 848.505L1519.5 709.312L1722 624" stroke="url(#paint13_linear_1_2)" stroke-width="16"/>
<path d="M810 1329L919.897 1169.35L1127.99 1073.06L1245.52 907.927L1415.45 872.505L1534.5 733.312L1737 648" stroke="url(#paint14_linear_1_2)" stroke-width="16"/>
<path d="M825 1353L934.897 1193.35L1142.99 1097.06L1260.52 931.927L1430.45 896.505L1549.5 757.312L1752 672" stroke="url(#paint15_linear_1_2)" stroke-width="16"/>
<path d="M840 1377L949.897 1217.35L1157.99 1121.06L1275.52 955.927L1445.45 920.505L1564.5 781.312L1767 696" stroke="url(#paint16_linear_1_2)" stroke-width="16"/>
<path d="M855 1401L964.897 1241.35L1172.99 1145.06L1290.52 979.927L1460.45 944.505L1579.5 805.312L1782 720" stroke="url(#paint17_linear_1_2)" stroke-width="16"/>
<path d="M870 1425L979.897 1265.35L1187.99 1169.06L1305.52 1003.93L1475.45 968.505L1594.5 829.312L1797 744" stroke="url(#paint18_linear_1_2)" stroke-width="16"/>
<path d="M885 1449L994.897 1289.35L1202.99 1193.06L1320.52 1027.93L1490.45 992.505L1609.5 853.312L1812 768" stroke="url(#paint19_linear_1_2)" stroke-width="16"/>
<path d="M900 1473L1009.9 1313.35L1217.99 1217.06L1335.52 1051.93L1505.45 1016.51L1624.5 877.312L1827 792" stroke="url(#paint20_linear_1_2)" stroke-width="16"/>
<path d="M900 1017L790.103 857.352L582.012 761.064L464.483 595.927L294.55 560.505L175.495 421.312L-27 336" stroke="url(#paint21_linear_1_2)" stroke-width="16"/>
<path d="M885 1041L775.103 881.352L567.012 785.064L449.483 619.927L279.55 584.505L160.495 445.312L-42 360" stroke="url(#paint22_linear_1_2)" stroke-width="16"/>
<path d="M870 1065L760.103 905.352L552.012 809.064L434.483 643.927L264.55 608.505L145.495 469.312L-57 384" stroke="url(#paint23_linear_1_2)" stroke-width="16"/>
<path d="M855 1089L745.103 929.352L537.012 833.064L419.483 667.927L249.55 632.505L130.495 493.312L-72 408" stroke="url(#paint24_linear_1_2)" stroke-width="16"/>
<path d="M840 1113L730.103 953.352L522.012 857.064L404.483 691.927L234.55 656.505L115.495 517.312L-87 432" stroke="url(#paint25_linear_1_2)" stroke-width="16"/>
<path d="M825 1137L715.103 977.352L507.012 881.064L389.483 715.927L219.55 680.505L100.495 541.312L-102 456" stroke="url(#paint26_linear_1_2)" stroke-width="16"/>
<path d="M810 1161L700.103 1001.35L492.012 905.064L374.483 739.927L204.55 704.505L85.4951 565.312L-117 480" stroke="url(#paint27_linear_1_2)" stroke-width="16"/>
<path d="M795 1185L685.103 1025.35L477.012 929.064L359.483 763.927L189.55 728.505L70.4951 589.312L-132 504" stroke="url(#paint28_linear_1_2)" stroke-width="16"/>
<path d="M780 1209L670.103 1049.35L462.012 953.064L344.483 787.927L174.55 752.505L55.4951 613.312L-147 528" stroke="url(#paint29_linear_1_2)" stroke-width="16"/>
<path d="M765 1233L655.103 1073.35L447.012 977.064L329.483 811.927L159.55 776.505L40.4951 637.312L-162 552" stroke="url(#paint30_linear_1_2)" stroke-width="16"/>
<path d="M750 1257L640.103 1097.35L432.012 1001.06L314.483 835.927L144.55 800.505L25.4951 661.312L-177 576" stroke="url(#paint31_linear_1_2)" stroke-width="16"/>
<path d="M735 1281L625.103 1121.35L417.012 1025.06L299.483 859.927L129.55 824.505L10.4951 685.312L-192 600" stroke="url(#paint32_linear_1_2)" stroke-width="16"/>
<path d="M720 1305L610.103 1145.35L402.012 1049.06L284.483 883.927L114.55 848.505L-4.50493 709.312L-207 624" stroke="url(#paint33_linear_1_2)" stroke-width="16"/>
<path d="M705 1329L595.103 1169.35L387.012 1073.06L269.483 907.927L99.55 872.505L-19.5049 733.312L-222 648" stroke="url(#paint34_linear_1_2)" stroke-width="16"/>
<path d="M690 1353L580.103 1193.35L372.012 1097.06L254.483 931.927L84.55 896.505L-34.5049 757.312L-237 672" stroke="url(#paint35_linear_1_2)" stroke-width="16"/>
<path d="M675 1377L565.103 1217.35L357.012 1121.06L239.483 955.927L69.55 920.505L-49.5049 781.312L-252 696" stroke="url(#paint36_linear_1_2)" stroke-width="16"/>
<path d="M660 1401L550.103 1241.35L342.012 1145.06L224.483 979.927L54.55 944.505L-64.5049 805.312L-267 720" stroke="url(#paint37_linear_1_2)" stroke-width="16"/>
<path d="M645 1425L535.103 1265.35L327.012 1169.06L209.483 1003.93L39.55 968.505L-79.5049 829.312L-282 744" stroke="url(#paint38_linear_1_2)" stroke-width="16"/>
<path d="M630 1449L520.103 1289.35L312.012 1193.06L194.483 1027.93L24.55 992.505L-94.5049 853.312L-297 768" stroke="url(#paint39_linear_1_2)" stroke-width="16"/>
<path d="M615 1473L505.103 1313.35L297.012 1217.06L179.483 1051.93L9.54995 1016.51L-109.505 877.312L-312 792" stroke="url(#paint40_linear_1_2)" stroke-width="16"/>
<path d="M600 1497L490.103 1337.35L282.012 1241.06L164.483 1075.93L-5.45005 1040.51L-124.505 901.312L-327 816" stroke="url(#paint41_linear_1_2)" stroke-width="16"/>
</g>
<defs>
<linearGradient id="paint0_linear_1_2" x1="1063.5" y1="312" x2="1063.5" y2="993" gradientUnits="userSpaceOnUse">
<stop stop-color="#46BEFF"/>
<stop offset="1" stop-color="#80BE6C" stop-opacity="0"/>
</linearGradient>
<linearGradient id="paint1_linear_1_2" x1="1078.5" y1="336" x2="1078.5" y2="1017" gradientUnits="userSpaceOnUse">
<stop stop-color="#46BEFF"/>
<stop offset="1" stop-color="#80BE6C" stop-opacity="0"/>
</linearGradient>
<linearGradient id="paint2_linear_1_2" x1="1093.5" y1="360" x2="1093.5" y2="1041" gradientUnits="userSpaceOnUse">
<stop stop-color="#46BEFF"/>
<stop offset="1" stop-color="#80BE6C" stop-opacity="0"/>
</linearGradient>
<linearGradient id="paint3_linear_1_2" x1="1108.5" y1="384" x2="1108.5" y2="1065" gradientUnits="userSpaceOnUse">
<stop stop-color="#46BEFF"/>
<stop offset="1" stop-color="#80BE6C" stop-opacity="0"/>
</linearGradient>
<linearGradient id="paint4_linear_1_2" x1="1123.5" y1="408" x2="1123.5" y2="1089" gradientUnits="userSpaceOnUse">
<stop stop-color="#46BEFF"/>
<stop offset="1" stop-color="#80BE6C" stop-opacity="0"/>
</linearGradient>
<linearGradient id="paint5_linear_1_2" x1="1138.5" y1="432" x2="1138.5" y2="1113" gradientUnits="userSpaceOnUse">
<stop stop-color="#46BEFF"/>
<stop offset="1" stop-color="#80BE6C" stop-opacity="0"/>
</linearGradient>
<linearGradient id="paint6_linear_1_2" x1="1153.5" y1="456" x2="1153.5" y2="1137" gradientUnits="userSpaceOnUse">
<stop stop-color="#46BEFF"/>
<stop offset="1" stop-color="#80BE6C" stop-opacity="0"/>
</linearGradient>
<linearGradient id="paint7_linear_1_2" x1="1168.5" y1="480" x2="1168.5" y2="1161" gradientUnits="userSpaceOnUse">
<stop stop-color="#46BEFF"/>
<stop offset="1" stop-color="#80BE6C" stop-opacity="0"/>
</linearGradient>
<linearGradient id="paint8_linear_1_2" x1="1183.5" y1="504" x2="1183.5" y2="1185" gradientUnits="userSpaceOnUse">
<stop stop-color="#46BEFF"/>
<stop offset="1" stop-color="#80BE6C" stop-opacity="0"/>
</linearGradient>
<linearGradient id="paint9_linear_1_2" x1="1198.5" y1="528" x2="1198.5" y2="1209" gradientUnits="userSpaceOnUse">
<stop stop-color="#46BEFF"/>
<stop offset="1" stop-color="#80BE6C" stop-opacity="0"/>
</linearGradient>
<linearGradient id="paint10_linear_1_2" x1="1213.5" y1="552" x2="1213.5" y2="1233" gradientUnits="userSpaceOnUse">
<stop stop-color="#46BEFF"/>
<stop offset="1" stop-color="#80BE6C" stop-opacity="0"/>
</linearGradient>
<linearGradient id="paint11_linear_1_2" x1="1228.5" y1="576" x2="1228.5" y2="1257" gradientUnits="userSpaceOnUse">
<stop stop-color="#46BEFF"/>
<stop offset="1" stop-color="#80BE6C" stop-opacity="0"/>
</linearGradient>
<linearGradient id="paint12_linear_1_2" x1="1243.5" y1="600" x2="1243.5" y2="1281" gradientUnits="userSpaceOnUse">
<stop stop-color="#46BEFF"/>
<stop offset="1" stop-color="#80BE6C" stop-opacity="0"/>
</linearGradient>
<linearGradient id="paint13_linear_1_2" x1="1258.5" y1="624" x2="1258.5" y2="1305" gradientUnits="userSpaceOnUse">
<stop stop-color="#46BEFF"/>
<stop offset="1" stop-color="#80BE6C" stop-opacity="0"/>
</linearGradient>
<linearGradient id="paint14_linear_1_2" x1="1273.5" y1="648" x2="1273.5" y2="1329" gradientUnits="userSpaceOnUse">
<stop stop-color="#46BEFF"/>
<stop offset="1" stop-color="#80BE6C" stop-opacity="0"/>
</linearGradient>
<linearGradient id="paint15_linear_1_2" x1="1288.5" y1="672" x2="1288.5" y2="1353" gradientUnits="userSpaceOnUse">
<stop stop-color="#46BEFF"/>
<stop offset="1" stop-color="#80BE6C" stop-opacity="0"/>
</linearGradient>
<linearGradient id="paint16_linear_1_2" x1="1303.5" y1="696" x2="1303.5" y2="1377" gradientUnits="userSpaceOnUse">
<stop stop-color="#46BEFF"/>
<stop offset="1" stop-color="#80BE6C" stop-opacity="0"/>
</linearGradient>
<linearGradient id="paint17_linear_1_2" x1="1318.5" y1="720" x2="1318.5" y2="1401" gradientUnits="userSpaceOnUse">
<stop stop-color="#46BEFF"/>
<stop offset="1" stop-color="#80BE6C" stop-opacity="0"/>
</linearGradient>
<linearGradient id="paint18_linear_1_2" x1="1333.5" y1="744" x2="1333.5" y2="1425" gradientUnits="userSpaceOnUse">
<stop stop-color="#46BEFF"/>
<stop offset="1" stop-color="#80BE6C" stop-opacity="0"/>
</linearGradient>
<linearGradient id="paint19_linear_1_2" x1="1348.5" y1="768" x2="1348.5" y2="1449" gradientUnits="userSpaceOnUse">
<stop stop-color="#46BEFF"/>
<stop offset="1" stop-color="#80BE6C" stop-opacity="0"/>
</linearGradient>
<linearGradient id="paint20_linear_1_2" x1="1363.5" y1="792" x2="1363.5" y2="1473" gradientUnits="userSpaceOnUse">
<stop stop-color="#46BEFF"/>
<stop offset="1" stop-color="#80BE6C" stop-opacity="0"/>
</linearGradient>
<linearGradient id="paint21_linear_1_2" x1="436.5" y1="336" x2="436.5" y2="1017" gradientUnits="userSpaceOnUse">
<stop stop-color="#46BEFF"/>
<stop offset="1" stop-color="#80BE6C" stop-opacity="0"/>
</linearGradient>
<linearGradient id="paint22_linear_1_2" x1="421.5" y1="360" x2="421.5" y2="1041" gradientUnits="userSpaceOnUse">
<stop stop-color="#46BEFF"/>
<stop offset="1" stop-color="#80BE6C" stop-opacity="0"/>
</linearGradient>
<linearGradient id="paint23_linear_1_2" x1="406.5" y1="384" x2="406.5" y2="1065" gradientUnits="userSpaceOnUse">
<stop stop-color="#46BEFF"/>
<stop offset="1" stop-color="#80BE6C" stop-opacity="0"/>
</linearGradient>
<linearGradient id="paint24_linear_1_2" x1="391.5" y1="408" x2="391.5" y2="1089" gradientUnits="userSpaceOnUse">
<stop stop-color="#46BEFF"/>
<stop offset="1" stop-color="#80BE6C" stop-opacity="0"/>
</linearGradient>
<linearGradient id="paint25_linear_1_2" x1="376.5" y1="432" x2="376.5" y2="1113" gradientUnits="userSpaceOnUse">
<stop stop-color="#46BEFF"/>
<stop offset="1" stop-color="#80BE6C" stop-opacity="0"/>
</linearGradient>
<linearGradient id="paint26_linear_1_2" x1="361.5" y1="456" x2="361.5" y2="1137" gradientUnits="userSpaceOnUse">
<stop stop-color="#46BEFF"/>
<stop offset="1" stop-color="#80BE6C" stop-opacity="0"/>
</linearGradient>
<linearGradient id="paint27_linear_1_2" x1="346.5" y1="480" x2="346.5" y2="1161" gradientUnits="userSpaceOnUse">
<stop stop-color="#46BEFF"/>
<stop offset="1" stop-color="#80BE6C" stop-opacity="0"/>
</linearGradient>
<linearGradient id="paint28_linear_1_2" x1="331.5" y1="504" x2="331.5" y2="1185" gradientUnits="userSpaceOnUse">
<stop stop-color="#46BEFF"/>
<stop offset="1" stop-color="#80BE6C" stop-opacity="0"/>
</linearGradient>
<linearGradient id="paint29_linear_1_2" x1="316.5" y1="528" x2="316.5" y2="1209" gradientUnits="userSpaceOnUse">
<stop stop-color="#46BEFF"/>
<stop offset="1" stop-color="#80BE6C" stop-opacity="0"/>
</linearGradient>
<linearGradient id="paint30_linear_1_2" x1="301.5" y1="552" x2="301.5" y2="1233" gradientUnits="userSpaceOnUse">
<stop stop-color="#46BEFF"/>
<stop offset="1" stop-color="#80BE6C" stop-opacity="0"/>
</linearGradient>
<linearGradient id="paint31_linear_1_2" x1="286.5" y1="576" x2="286.5" y2="1257" gradientUnits="userSpaceOnUse">
<stop stop-color="#46BEFF"/>
<stop offset="1" stop-color="#80BE6C" stop-opacity="0"/>
</linearGradient>
<linearGradient id="paint32_linear_1_2" x1="271.5" y1="600" x2="271.5" y2="1281" gradientUnits="userSpaceOnUse">
<stop stop-color="#46BEFF"/>
<stop offset="1" stop-color="#80BE6C" stop-opacity="0"/>
</linearGradient>
<linearGradient id="paint33_linear_1_2" x1="256.5" y1="624" x2="256.5" y2="1305" gradientUnits="userSpaceOnUse">
<stop stop-color="#46BEFF"/>
<stop offset="1" stop-color="#80BE6C" stop-opacity="0"/>
</linearGradient>
<linearGradient id="paint34_linear_1_2" x1="241.5" y1="648" x2="241.5" y2="1329" gradientUnits="userSpaceOnUse">
<stop stop-color="#46BEFF"/>
<stop offset="1" stop-color="#80BE6C" stop-opacity="0"/>
</linearGradient>
<linearGradient id="paint35_linear_1_2" x1="226.5" y1="672" x2="226.5" y2="1353" gradientUnits="userSpaceOnUse">
<stop stop-color="#46BEFF"/>
<stop offset="1" stop-color="#80BE6C" stop-opacity="0"/>
</linearGradient>
<linearGradient id="paint36_linear_1_2" x1="211.5" y1="696" x2="211.5" y2="1377" gradientUnits="userSpaceOnUse">
<stop stop-color="#46BEFF"/>
<stop offset="1" stop-color="#80BE6C" stop-opacity="0"/>
</linearGradient>
<linearGradient id="paint37_linear_1_2" x1="196.5" y1="720" x2="196.5" y2="1401" gradientUnits="userSpaceOnUse">
<stop stop-color="#46BEFF"/>
<stop offset="1" stop-color="#80BE6C" stop-opacity="0"/>
</linearGradient>
<linearGradient id="paint38_linear_1_2" x1="181.5" y1="744" x2="181.5" y2="1425" gradientUnits="userSpaceOnUse">
<stop stop-color="#46BEFF"/>
<stop offset="1" stop-color="#80BE6C" stop-opacity="0"/>
</linearGradient>
<linearGradient id="paint39_linear_1_2" x1="166.5" y1="768" x2="166.5" y2="1449" gradientUnits="userSpaceOnUse">
<stop stop-color="#46BEFF"/>
<stop offset="1" stop-color="#80BE6C" stop-opacity="0"/>
</linearGradient>
<linearGradient id="paint40_linear_1_2" x1="151.5" y1="792" x2="151.5" y2="1473" gradientUnits="userSpaceOnUse">
<stop stop-color="#46BEFF"/>
<stop offset="1" stop-color="#80BE6C" stop-opacity="0"/>
</linearGradient>
<linearGradient id="paint41_linear_1_2" x1="136.5" y1="816" x2="136.5" y2="1497" gradientUnits="userSpaceOnUse">
<stop stop-color="#46BEFF"/>
<stop offset="1" stop-color="#80BE6C" stop-opacity="0"/>
</linearGradient>
<clipPath id="clip0_1_2">
<rect width="1440" height="1024" fill="white"/>
</clipPath>
</defs>
</svg>
